<svg width="200" height="200" viewBox="0 0 200 200" fill="none" xmlns="http://www.w3.org/2000/svg">
<g style="mix-blend-mode:darken">
<path d="M37.0078 14.7659C37.0078 10.0049 41.8977 9.46783 43.876 9.40973C45.8544 9.35163 65.4959 7.98142 89.863 10.6C120.322 13.8733 140.628 29.9419 148.691 42.7373C156.753 55.5327 151.079 75.4697 141.822 85.587C132.565 95.7042 119.103 99.5963 105.391 100.465C96.9178 101.002 54.3276 100.763 45.9663 100.465C37.6051 100.168 37.6051 96.5969 36.4106 93.9188C35.2161 91.2407 37.0078 20.7173 37.0078 14.7659Z" fill="#387EF2"/>
<path d="M36.4106 133.793C36.4106 118.914 36.224 116.295 39.6954 113.558C43.1668 110.822 79.2994 109.037 102.89 110.227C126.481 111.417 142.718 114.451 154.364 126.056C166.01 137.661 167.802 159.979 155.857 173.072C143.913 186.165 127.489 189.735 121.815 189.735C116.141 189.735 48.3553 190.331 42.9802 189.735C37.6051 189.14 36.4106 183.487 36.4106 181.999V133.793Z" fill="#387EF2"/>
</g>
</svg>
